<?xml version="1.0" standalone="no"?>
<!DOCTYPE svg PUBLIC "-//W3C//DTD SVG 1.1//EN"
  "http://www.w3.org/Graphics/SVG/1.1/DTD/svg11.dtd">
<svg width="89mm" height="104mm" viewBox="-65 -39 89 104" xmlns="http://www.w3.org/2000/svg" version="1.1">
	<title>svgOutput</title>
	<desc>made with tinkercad</desc>
<path d="M -64 64 L -64 62.910926818847656 L -64 29.086820602416992 L -64 -38 L -47.00299835205078 -38 L -41.99700164794922 -38 L -37.00299835205078 -38 L 9.996999740600586 -38 L 15.003000259399414 -38 L 23 -38 L 23 -16.202579498291016 L 15.003000259399414 -12.03959846496582 L 9.996999740600586 -9.433635711669922 L -36.933746337890625 14.996999740600586 L -37.00299835205078 14.996999740600586 L -37.00299835205078 15.033050537109375 L -41.99700164794922 17.632766723632812 L -47.00299835205078 20.23872947692871 L -51.00299835205078 22.320999145507812 L -37.14899826049805 48.93299865722656 L -37.00299835205078 48.85699462890625 L -37.00299835205078 64 L -64 64 M 15.003000259399414 -35.00299835205078 L 9.996999740600586 -35.00299835205078 L 9.996999740600586 -32.99800109863281 L 15.003000259399414 -32.99800109863281 L 15.003000259399414 -35.00299835205078 M -47.00299835205078 -35.00299835205078 L -47.00299835205078 -32.99800109863281 L -41.99700164794922 -32.99800109863281 L -41.99700164794922 -35.00299835205078 L -47.00299835205078 -35.00299835205078 z" fill="none" stroke="rgb(255,0,0)" stroke-width="0.001mm" />
</svg>